<svg xmlns="http://www.w3.org/2000/svg" version="1.1" width="512" height="512" style=""><rect id="backgroundrect" width="100%" height="100%" x="0" y="0" fill="none" stroke="none"/>


<g class="currentLayer" style=""><title>Layer 1</title><path d="M165.4155405163765,17.125 C168.9945229163765,20.28292565 172.0031630663765,23.38786765 173.5405405163765,28 C173.6282422863765,29.70283422 173.65819444637648,31.408927480000003 173.6540659063765,33.11401367 C173.6539450563765,34.169393310000004 173.6538242063765,35.22477295 173.6536996963765,36.312133790000004 C173.6485837263765,37.41955933 173.6434677663765,38.52698486 173.6381967663765,39.66796875 C173.6371896863765,40.68717407 173.6361826063765,41.706379389999995 173.6351450063765,42.75646973 C173.6299096463765,46.56682458 173.6159483963765,50.37716341 173.6030405163765,54.1875 C173.5824155163765,62.705625 173.5617905163765,71.22375 173.5405405163765,80 C195.6505405163765,80 217.7605405163765,80 240.5405405163765,80 C240.3824294963765,62.49853038 240.3824294963765,62.49853038 240.1801889563765,44.99755859 C240.1685027063765,42.79785946 240.1583107263765,40.59815166 240.1499155163765,38.3984375 C240.12945164637648,37.26317627 240.1089877863765,36.127915040000005 240.0879037963765,34.958251950000005 C240.0851162563765,28.6402802 240.24988343637648,24.777115000000002 244.5405405163765,20 C248.3598422363765,16.37166337 251.4233305763765,15.689995419999999 256.5405405163765,15.5 C261.6577504563765,15.689995419999999 264.7212387963765,16.37166337 268.5405405163765,20 C273.5889882763765,25.62082102 273.0627144963765,31.10057656 272.9311655163765,38.3984375 C272.9271371963765,39.45393799 272.9231088763765,40.50943848 272.9189584863765,41.59692383 C272.8980999163765,45.52312716 272.8422545363765,49.44908184 272.7905405163765,53.375 C272.7080405163765,62.16125 272.6255405163765,70.94749999999999 272.5405405163765,80 C292.3405405163765,80 312.1405405163765,80 332.5405405163765,80 C332.38258649637646,63.24680823 332.38258649637646,63.24680823 332.18018895637647,46.494140619999996 C332.16849780637654,44.38151867 332.1583069863765,42.26888764 332.1499155163765,40.15625 C332.12945164637654,39.0744043 332.1089877863765,37.99255859 332.0879037963765,36.87792969 C332.08496048637653,30.45562312 332.6312996763765,25.27853413 336.5405405163765,20 C341.5288990363765,15.92787059 345.6479361163765,15.41353041 352.0249155163765,15.68359375 C356.8355802863765,16.28866183 359.2102054363765,18.50199237 362.2905405163765,22 C365.2324027063765,25.92248292 365.6653818063765,28.441814880000003 365.6540659063765,33.205810549999995 C365.6539903763765,34.26668381 365.6539148463765,35.32755707 365.6538370263765,36.420578 C365.6486757363765,37.56440445 365.64351445637647,38.708230900000004 365.6381967663765,39.88671875 C365.6360743463765,41.644937060000004 365.6360743463765,41.644937060000004 365.6339090463765,43.438674930000005 C365.6283043963765,47.18830907 365.61575107637645,50.93788385 365.6030405163765,54.6875 C365.5980261163765,57.22721268 365.5934631063765,59.7669263 365.5893686363765,62.30664062 C365.5783334563765,68.53778073000001 365.5615907663765,74.76888611999999 365.5405405163765,81 C366.2893750463765,81.13055283 367.0382095863765,81.26110565 367.8097360763765,81.39561462 C368.7954962663765,81.57048904 369.78125645637647,81.74536346 370.79688817637646,81.92553711 C371.7725977063765,82.09733994 372.7483072363765,82.26914276 373.7535837263765,82.44615173 C391.9197685063765,86.0562938 408.1435349163765,98.45063017 418.8921030163765,113.234375 C424.1538238463765,121.47182559 428.5190609463765,130.10339829999998 430.6035287963765,139.69042969 C430.7800598663765,140.4982489 430.9565909363765,141.30606812000002 431.1384714263765,142.1383667 C431.2711542263765,142.75270569 431.4038370263765,143.36704468 431.5405405163765,144 C432.5541212963765,143.98667633 432.5541212963765,143.98667633 433.5881784563765,143.9730835 C440.6285280963765,143.88450890000001 447.6687191363765,143.82422329000002 454.7094858263765,143.78027344 C457.33617884637647,143.76017285 459.9628272063765,143.73288796 462.5893686363765,143.69824219 C466.36747563637647,143.64965836 470.14499035637647,143.62701491 473.9233530163765,143.609375 C475.09544316637647,143.58872986 476.2675333163765,143.56808472 477.4751413463765,143.54681396 C483.8192246463765,143.5450726 487.75165253637647,143.67384959 492.5405405163765,148 C496.1688771463765,151.81930172 496.8505450963765,154.88279006 497.0405405163765,160 C496.8505450963765,165.11720994 496.1688771463765,168.18069828 492.5405405163765,172 C486.9197194963765,177.04844776 481.4399639563765,176.52217398 474.1421030163765,176.390625 C473.0866025263765,176.38659668 472.0311020363765,176.38256836 470.9436166863765,176.37841797 C467.0174133563765,176.3575594 463.0914586763765,176.30171402 459.1655405163765,176.25 C450.3792905163765,176.1675 441.5930405163765,176.085 432.5405405163765,176 C432.5405405163765,197.12 432.5405405163765,218.24 432.5405405163765,240 C450.0420101363765,239.84188898 450.0420101363765,239.84188898 467.5429819263765,239.63964844 C469.7426810563765,239.62796219 471.9423888563765,239.61777021 474.1421030163765,239.609375 C475.2773642463765,239.58891113 476.4126254763765,239.56844727 477.5822885663765,239.54736328 C483.9002603163765,239.54457574 487.7634255163765,239.70934292 492.5405405163765,244 C496.1688771463765,247.81930172 496.8505450963765,250.88279006 497.0405405163765,256 C496.8505450963765,261.11720994 496.1688771463765,264.18069828 492.5405405163765,268 C486.9197194963765,273.04844776 481.4399639563765,272.52217398 474.1421030163765,272.390625 C473.0866025263765,272.38659668 472.0311020363765,272.38256836 470.9436166863765,272.37841797 C467.0174133563765,272.3575594 463.0914586763765,272.30171401999996 459.1655405163765,272.25 C450.3792905163765,272.1675 441.5930405163765,272.08500000000004 432.5405405163765,272 C432.5405405163765,293.12 432.5405405163765,314.24 432.5405405163765,336 C450.0420101363765,335.84188898 450.0420101363765,335.84188898 467.5429819263765,335.63964844 C469.7426810563765,335.62796219 471.9423888563765,335.61777021 474.1421030163765,335.609375 C475.2773642463765,335.58891113 476.4126254763765,335.56844727 477.5822885663765,335.54736328 C483.9002603163765,335.54457574 487.7634255163765,335.70934292 492.5405405163765,340 C496.1688771463765,343.81930172 496.8505450963765,346.88279006 497.0405405163765,352 C496.8505450963765,357.11720994 496.1688771463765,360.18069828 492.5405405163765,364 C486.8897770563765,369.10474514 481.2663254663765,368.51996378 473.9233530163765,368.390625 C472.1049138363765,368.38213531 472.1049138363765,368.38213531 470.2497385163765,368.37347412 C466.3879330263765,368.35113158 462.5270643363765,368.30093598 458.6655405163765,368.25 C456.0431581063765,368.2299324 453.42076111637647,368.21168209 450.7983530163765,368.1953125 C444.3787639963765,368.15127351 437.9597191963765,368.08438105 431.5405405163765,368 C431.3444167063765,368.81612762 431.1482928963765,369.63225525 430.9462259363765,370.47311401 C430.6836851963765,371.54787994 430.4211444563765,372.62264587 430.1506479363765,373.72998047 C429.8926491263765,374.79360809 429.6346503163765,375.85723572 429.3688333663765,376.95309448 C428.2860627563765,380.93610576 426.7583171863765,384.47710947 424.8530405163765,388.125 C424.5049130763765,388.80312744 424.15678563637647,389.48125488 423.7981088763765,390.17993164 C420.6952066663765,396.04034892 417.0282365563765,401.10901196 412.5405405163765,406 C411.8766733263765,406.75539063 411.21280614637647,407.51078125 410.5288217663765,408.2890625 C398.6946463463765,421.02009779 382.7396719963765,429.02724377 365.5405405163765,431 C365.5472023463765,431.65066437 365.5538641863765,432.30132874 365.56072789637653,432.97171021 C365.6271721563765,439.75257418 365.6723790463765,446.53334543 365.70533543637646,453.31445312 C365.7204083763765,455.84411374 365.74087012637654,458.37374829 365.7668588763765,460.90332031 C365.8033066763765,464.54238323 365.8202822163765,468.18110016 365.8335092663765,471.8203125 C365.8489931263765,472.94865509 365.8644769763765,474.07699768 365.8804300463765,475.23953247 C365.8820114563765,482.64186332 365.08972603637653,487.13216629 360.0405405163765,492.8125 C355.7966252463765,496.52592586 351.7440161163765,496.34815156 346.3335092663765,496.26953125 C341.92882069637653,495.8444634 339.9991004963765,494.82331427 336.5405405163765,492 C331.92359067637653,485.765867 332.0083420963765,479.32819075 332.1499155163765,471.84375 C332.15394383637647,470.82958008 332.1579721563765,469.81541016 332.1621225463765,468.77050781 C332.18291372637646,465.01348554 332.2387584163765,461.25672294 332.2905405163765,457.5 C332.3730405163765,449.085 332.45554051637646,440.67 332.5405405163765,432 C312.7405405163765,432 292.9405405163765,432 272.5405405163765,432 C272.6986515363765,449.50146962 272.6986515363765,449.50146962 272.9008920763765,467.00244141 C272.9125783263765,469.20214054 272.9227703063765,471.40184834 272.9311655163765,473.6015625 C272.9516293863765,474.73682373 272.9720932463765,475.87208496 272.9931772363765,477.04174805 C272.99596477637647,483.3597198 272.8311975963765,487.222885 268.5405405163765,492 C264.7212387963765,495.62833663 261.6577504563765,496.31000458 256.5405405163765,496.5 C251.4233305763765,496.31000458 248.3598422363765,495.62833663 244.5405405163765,492 C239.4920927563765,486.37917898 240.0183665363765,480.89942344 240.1499155163765,473.6015625 C240.1539438363765,472.54606201 240.1579721563765,471.49056152 240.1621225463765,470.40307617 C240.18298111637648,466.47687284 240.23882649637648,462.55091816 240.2905405163765,458.625 C240.37304051637648,449.83875 240.45554051637652,441.0525 240.5405405163765,432 C218.43054051637648,432 196.3205405163765,432 173.5405405163765,432 C173.6591111563765,448.84316319 173.6591111563765,448.84316319 173.8108041863765,465.68603516 C173.8195692563765,467.80370632 173.8272131463765,469.92138255 173.8335092663765,472.0390625 C173.8565311163765,473.67717896 173.8565311163765,473.67717896 173.88001805637649,475.34838867 C173.8825459863765,482.70466194 173.0586648863765,487.16711008 168.0405405163765,492.8125 C163.7966252463765,496.52592586 159.74401611637649,496.34815156 154.3335092663765,496.26953125 C149.9288206963765,495.8444634 147.99910049637649,494.82331427 144.5405405163765,492 C140.1825619763765,485.18139412 139.9397535363765,479.37395852 139.9311655163765,471.40625 C139.9146292663765,470.21898315 139.89809300637648,469.03171631 139.8810556563765,467.80847168 C139.8327058863765,464.0389278 139.8112324763765,460.26978702 139.7905405163765,456.5 C139.76237012637648,453.9348757 139.7324412163765,451.36977006 139.7006967663765,448.8046875 C139.6269500963765,442.53653119 139.5752312863765,436.26848764 139.5405405163765,430 C138.4536996963765,429.60530518 137.36685887637648,429.21061035 136.24708348637648,428.80395508 C134.8005344763765,428.2719113 133.3540880563765,427.73958852 131.9077280163765,427.20703125 C131.1938290863765,426.9486145 130.4799301663765,426.69019775 129.7443979363765,426.4239502 C119.0107368563765,422.45341826 110.65536672637649,415.97935332 102.5405405163765,408 C101.8405795763765,407.31292969 101.1406186363765,406.62585938 100.4194467663765,405.91796875 C91.83649763637649,396.90001635 81.5405405163765,381.01825453 81.5405405163765,368 C80.8648199963765,368.00888245 80.1890994763765,368.01776489 79.4929025763765,368.0269165 C72.45255293637649,368.1154911 65.4123618963765,368.17577671 58.3715952063765,368.21972656 C55.74490218637649,368.23982715 53.11825382637649,368.26711204 50.4917123963765,368.30175781 C46.713605396376494,368.35034164 42.936090676376494,368.37298509 39.157728016376495,368.390625 C37.98563786637649,368.41127014 36.81354771637649,368.43191528 35.6059396863765,368.45318604 C29.261856386376508,368.4549274 25.329428496376494,368.32615041 20.540540516376495,364 C16.91220388637649,360.18069828 16.230535936376498,357.11720994 16.040540516376495,352 C16.230535936376498,346.88279006 16.91220388637649,343.81930172 20.540540516376495,340 C26.16136153637649,334.95155224 31.641117076376503,335.47782602 38.938978016376495,335.609375 C40.5222287463765,335.61541748 40.5222287463765,335.61541748 42.13746434637649,335.62158203 C46.0636676763765,335.6424406 49.9896223563765,335.69828598 53.915540516376495,335.75 C67.09491551637649,335.87375 67.09491551637649,335.87375 80.5405405163765,336 C80.5405405163765,314.88 80.5405405163765,293.76 80.5405405163765,272 C63.0390708963765,272.15811102 63.0390708963765,272.15811102 45.53809910637649,272.36035156 C43.33839997637649,272.37203781 41.138692176376495,272.38222979 38.938978016376495,272.390625 C37.8037167863765,272.41108886999996 36.6684555563765,272.43155273 35.4987924663765,272.45263672 C29.180820716376502,272.45542426 25.317655516376504,272.29065707999996 20.540540516376495,268 C16.91220388637649,264.18069828 16.230535936376498,261.11720994 16.040540516376495,256 C16.230535936376498,250.88279006 16.91220388637649,247.81930172 20.540540516376495,244 C26.16136153637649,238.95155224 31.641117076376503,239.47782602 38.938978016376495,239.609375 C40.5222287463765,239.61541748 40.5222287463765,239.61541748 42.13746434637649,239.62158203 C46.0636676763765,239.6424406 49.9896223563765,239.69828598 53.915540516376495,239.75 C67.09491551637649,239.87375 67.09491551637649,239.87375 80.5405405163765,240 C80.5405405163765,218.88 80.5405405163765,197.76 80.5405405163765,176 C63.0390708963765,176.15811102 63.0390708963765,176.15811102 45.53809910637649,176.36035156 C43.33839997637649,176.37203781 41.138692176376495,176.38222979 38.938978016376495,176.390625 C37.8037167863765,176.41108887 36.6684555563765,176.43155273 35.4987924663765,176.45263672 C29.180820716376502,176.45542426 25.317655516376504,176.29065708 20.540540516376495,172 C16.91220388637649,168.18069828 16.230535936376498,165.11720994 16.040540516376495,160 C16.230535936376498,154.88279006 16.91220388637649,151.81930172 20.540540516376495,148 C26.191303976376503,142.89525486 31.814755566376505,143.48003622 39.157728016376495,143.609375 C40.3700208063765,143.61503478999998 41.5823135863765,143.62069458000002 42.831342516376495,143.62652588 C46.69314800637649,143.64886841999999 50.55401669637649,143.69906401999998 54.415540516376495,143.75 C57.037922926376496,143.7700676 59.660319916376494,143.78831791 62.282728016376495,143.8046875 C68.7023170363765,143.84872649 75.1213618363765,143.91561895 81.5405405163765,144 C81.7366643263765,143.18387238 81.9327881363765,142.36774474999999 82.1348550963765,141.52688598999998 C82.39739583637649,140.45212006 82.6599365763765,139.37735413000001 82.93043309637649,138.27001953 C83.1884319063765,137.20639190999998 83.4464307163765,136.14276428 83.7122476663765,135.04690552 C84.7950182763765,131.06389424 86.32276384637649,127.52289053 88.2280405163765,123.875 C88.5761679563765,123.19687256 88.9242953963765,122.51874512 89.2829721563765,121.82006836 C92.3858743663765,115.95965108 96.05284447637649,110.89098804 100.5405405163765,106 C101.2044077063765,105.24460937 101.8682748963765,104.48921875 102.5522592663765,103.7109375 C113.0270034063765,92.44235878 125.3904062463765,87.07228711 139.5405405163765,82 C139.5441861463765,81.34124878 139.54783177637648,80.68249756 139.5515878763765,80.00378418 C139.5935160963765,73.12488994 139.6629345363765,66.24665648999999 139.7480600463765,59.36816406 C139.77622232637648,56.80377829 139.7974603263765,54.23930647 139.8115366063765,51.67480469 C139.8330307763765,47.98067323 139.8797179663765,44.28757113 139.9311655163765,40.59375 C139.9323941563765,39.453856200000004 139.93362279637648,38.3139624 139.9348886563765,37.13952637 C140.0593367563765,30.32017771 140.8424499663765,25.78612807 144.5405405163765,20 C150.59818459637648,15.05498442 158.0891156963765,14.25813811 165.4155405163765,17.125 zM124.2905405163765,129.3125 C114.6098876763765,140.63230721 112.3754224863765,153.84511886 112.40682774637649,168.28387451 C112.4045621863765,169.06643403 112.40229663637649,169.84899355 112.3999624263765,170.655267 C112.39368488637649,173.25033668 112.39444773637649,175.8453533 112.3952768463765,178.44042969 C112.39228143637649,180.31226671 112.3888780363765,182.18410312 112.3850992363765,184.05593872 C112.3762936563765,189.12223609 112.37392256637649,194.18851654 112.37328344637649,199.25482082 C112.37257096637649,202.42542889 112.37043289637649,205.5960327 112.3677862263765,208.76663971 C112.3585440663765,219.84312715 112.35444990637649,230.91960258 112.3552377863765,241.99609375 C112.35583820637649,252.2962639 112.3452903263765,262.59638161 112.3294941163765,272.8965385 C112.3163882063765,281.76054655 112.31105516637649,290.62453753 112.3116931963765,299.48855519 C112.3119472863765,304.77338205 112.3091450063765,310.05816228 112.2985151363765,315.34297943 C112.2887827263765,320.31706989 112.2887900163765,325.29106963 112.2960317763765,330.26516342 C112.2970712563765,332.08190164 112.29475290637649,333.89864566 112.2886713163765,335.71537399 C112.22780479637649,355.17096354 113.4951987463765,371.59643246 127.6421030163765,386.1640625 C139.4156996063765,397.27201405 153.11175081637649,400.16788887 168.8244150263765,400.13371277 C169.6069745463765,400.13597833 170.38953406637648,400.13824388 171.1958075163765,400.14057809 C173.7908771963765,400.14685563 176.3858938163765,400.14609278 178.9809702063765,400.14526367 C180.85280722637648,400.14825908 182.7246436363765,400.15166248 184.5964792363765,400.15544128 C189.6627766063765,400.16424686 194.7290570563765,400.16661795 199.7953613363765,400.16725707 C202.9659694063765,400.16796955 206.1365732163765,400.17010762 209.3071802263765,400.17275429 C220.38366766637648,400.18199645 231.4601430963765,400.18609061 242.5366342663765,400.18530273 C252.83680441637648,400.18470231 263.1369221263765,400.19525019 273.4370790163765,400.2110464 C282.3010870663765,400.22415231 291.1650780463765,400.22948535 300.0290957063765,400.22884732 C305.3139225663765,400.22859323 310.59870279637653,400.23139551 315.8835199463765,400.24202538 C320.85761040637647,400.25175779 325.83161014637653,400.2517505 330.8057039363765,400.24450874 C332.6224421563765,400.24346926 334.4391861763765,400.24578761 336.2559145063765,400.2518692 C355.7115040563765,400.31273572 372.13697297637646,399.04534177 386.7046030163765,384.8984375 C397.8125545663765,373.12484091 400.7084293863765,359.4287897 400.6742532863765,343.71612549 C400.6765188463765,342.93356597 400.6787843963765,342.15100645 400.68111860637646,341.344733 C400.6873961463765,338.74966332 400.6866332963765,336.1546467 400.68580418637646,333.55957031 C400.6887995963765,331.68773329 400.6922029963765,329.81589688 400.6959817963765,327.94406128 C400.7047873763765,322.87776391 400.7071584663765,317.81148346 400.7077975863765,312.74517918 C400.7085100663765,309.57457111 400.7106481363765,306.4039673 400.7132948063765,303.23336029 C400.72253696637654,292.15687285 400.7266311263765,281.08039742 400.7258432463765,270.00390625 C400.72524282637653,259.7037361 400.7357907063765,249.40361839 400.7515869163765,239.1034615 C400.7646928263765,230.23945345 400.7700258663765,221.37546247 400.7693878363765,212.51144481 C400.7691337463765,207.22661795 400.77193602637647,201.94183772 400.78256589637647,196.65702057 C400.7922983063765,191.68293011 400.7922910163765,186.70893037 400.7850492563765,181.73483658 C400.7840097763765,179.91809836 400.7863281263765,178.10135434 400.7924097163765,176.28462601 C400.8532762363765,156.82903646 399.5858822863765,140.40356753999998 385.4389780163765,125.8359375 C373.6653814263765,114.72798595 359.96933021637653,111.83211113 344.25666600637646,111.86628723 C343.4741064863765,111.86402167 342.6915469663765,111.86175612 341.8852735163765,111.85942191 C339.29020383637646,111.85314437 336.6951872163765,111.85390722 334.1001108263765,111.85473633 C332.2282738063765,111.85174092 330.35643739637646,111.84833752 328.4846017963765,111.84455872 C323.4183044263765,111.83575314 318.3520239763765,111.83338205 313.28571969637653,111.83274293 C310.11511162637646,111.83203045 306.9445078163765,111.82989238 303.7739008063765,111.82724571 C292.6974133663765,111.81800355 281.6209379363765,111.81390939 270.5444467663765,111.81469727 C260.2442766163765,111.81529769 249.94415890637652,111.80474981 239.64400201637648,111.7889536 C230.77999396637648,111.77584769 221.9160029863765,111.77051465 213.0519853263765,111.77115268 C207.7671584663765,111.77140677 202.4823782363765,111.76860449 197.19756108637648,111.75797462 C192.2234706263765,111.74824221 187.24947088637649,111.7482495 182.2753770963765,111.75549126 C180.45863887637648,111.75653074 178.6418948563765,111.75421239 176.8251665263765,111.7481308 C156.0065375363765,111.68300003 139.22002270637648,113.48836719 124.2905405163765,129.3125 z" fill="#ffffff" id="svg_1" class="" fill-opacity="1"/><path d="M196.53076171875,143.595947265625 C197.97088140875,143.590233475625 199.41099657875,143.583265345625 200.85110473875,143.575149535625 C204.73555808875,143.557313075625 208.61978436875,143.558368565625 212.50426625875,143.564091925625 C215.75943321875,143.567197995625 219.01455743875,143.561075555625 222.26971828875,143.555053175625 C229.95572776875,143.541040435625 237.64162601875,143.542541715625 245.32763671875,143.553955075625 C253.22913264875,143.565429905625 261.13028888875,143.551363995625 269.03174006874997,143.524558605625 C275.84143886875,143.502330865625 282.65103158875,143.495780185625 289.46076404875,143.501635015625 C293.51655730875,143.504989335625 297.57213296875,143.502692115625 301.62789535875,143.485383985625 C305.44484560875003,143.469803725625 309.26129666875,143.473991445625 313.07822799875,143.492689135625 C314.46966970875,143.496344805625 315.86114934875,143.493355995625 317.25255584875003,143.482803345625 C332.87676047875,143.373459945625 344.29382431875,147.683575515625 355.74999999875,158.312499995625 C366.28045316875,169.439016555625 368.45759604875,181.701004025625 368.40405273875,196.530761715625 C368.40976651874996,197.970881405625 368.41673465875,199.410996575625 368.42485046875004,200.851104735625 C368.44268692875,204.735558085625 368.44163143875,208.619784375625 368.43590807875,212.504266265625 C368.43280200875,215.759433215625 368.43892443875,219.014557445625 368.44494682875,222.269718285625 C368.45895955875,229.955727765625 368.45745827875,237.64162601562498 368.44604491875,245.327636715625 C368.43457008875,253.229132645625 368.44863599875,261.130288885625 368.47544139875004,269.031740065625 C368.49766913875,275.84143886562504 368.50421981875,282.651031585625 368.49836498875004,289.460764045625 C368.49501066875,293.51655730562504 368.49730788875,297.572132975625 368.51461600875,301.627895355625 C368.53019626875,305.444845605625 368.52600855875,309.261296675625 368.50731086875,313.078227995625 C368.50365519875004,314.469669715625 368.50664399875,315.861149345625 368.51719665875,317.252555845625 C368.62654004875003,332.876760485625 364.31642447875004,344.293824315625 353.68749999875,355.749999995625 C342.56098344875,366.280453165625 330.29899597875,368.457596045625 315.46923827875,368.404052735625 C314.02911858875,368.409766525625 312.58900341875,368.41673465562496 311.14889525875003,368.424850465625 C307.26444190875,368.442686925625 303.38021562874997,368.441631435625 299.49573373875,368.435908075625 C296.24056677875,368.43280200562504 292.98544255875,368.438924445625 289.73028170875,368.44494682562504 C282.04427223875,368.45895955562503 274.35837397875,368.45745828562497 266.67236327875,368.44604492562496 C258.77086735875,368.43457009562496 250.86971110875,368.448635995625 242.96825992875,368.475441395625 C236.15856113875,368.49766913562496 229.34896840875,368.504219815625 222.53923594875,368.498364985625 C218.48344269875,368.495010665625 214.42786702875,368.497307885625 210.37210464875,368.514616015625 C206.55515438875,368.53019627562503 202.73870332875,368.526008555625 198.92177199875,368.50731086562496 C197.53033028875,368.503655195625 196.13885065875,368.506644005625 194.74744414875,368.517196655625 C179.12323951875,368.626540055625 167.70617567875001,364.316424485625 156.24999999875,353.687499995625 C145.71954683875,342.56098344562497 143.54240395875001,330.29899597562496 143.59594726875,315.469238285625 C143.59023347875,314.029118595625 143.58326534875,312.58900342562504 143.57514953875,311.148895265625 C143.55731306875,307.264441905625 143.55836855875,303.380215625625 143.56409191875,299.495733735625 C143.56719798875,296.240566785625 143.56107555875,292.985442555625 143.55505317875,289.730281705625 C143.54104043875,282.044272235625 143.54254171875,274.358373985625 143.55395507875,266.672363285625 C143.56542990875,258.770867355625 143.55136399875,250.86971110562502 143.52455860875,242.968259925625 C143.50233086875,236.158561135625 143.49578017875,229.348968405625 143.50163501875,222.539235945625 C143.50498932875,218.483442695625 143.50269210875,214.427867025625 143.48538398875002,210.372104645625 C143.46980372875,206.555154385625 143.47399143875,202.738703325625 143.49268912875,198.921772005625 C143.49634479875,197.53033028562498 143.49335599875,196.138850655625 143.48280334875,194.747444155625 C143.37345994875,179.12323951562502 147.68357551875,167.706175675625 158.31249999875,156.249999995625 C169.43901654875,145.719546835625 181.70100402875,143.542403955625 196.53076171875,143.595947265625 zM180.06249999875,181.749999995625 C175.45895917875,189.004064325625 175.70743857875,196.036465775625 175.72534179875,204.401855465625 C175.72023086875,205.636878055625 175.71511993875,206.871900635625 175.70985412875,208.144348145625 C175.69836912875,211.516412635625 175.69587921875,214.888230585625 175.69841742875,218.26029729562498 C175.69949104875,221.083142175625 175.69459372875,223.90596465562498 175.68981200875,226.728804705625 C175.67873589875,233.392950815625 175.67826854875,240.057040555625 175.68432616875,246.721191405625 C175.69036345875,253.578015935625 175.67805692875,260.434635125625 175.65675609875,267.291424635625 C175.63909658875,273.19485552562503 175.63314561875,279.098221325625 175.63639384875,285.001677635625 C175.63820010875,288.52027800562496 175.63563676875,292.03873192562503 175.62167930875,295.557308195625 C175.60668152875,299.48473811562496 175.61610906875,303.41190986562503 175.62768554875,307.339355465625 C175.62004180875,308.492895205625 175.61239806875,309.646434935625 175.60452270875,310.83493041562497 C175.64881422874998,317.64991156562496 175.80240115875,325.029407455625 180.27491283875,330.583112715625 C187.14331420875,336.88950306562504 195.68029549875,336.293323685625 204.40185546875,336.274658205625 C205.63687804875,336.279769135625 206.87190063875,336.284880065625 208.14434814875,336.290145875625 C211.51641262875,336.301630875625 214.88823058875,336.304120785625 218.26029729875,336.301582575625 C221.08314216875,336.300508945625 223.90596465875,336.305406275625 226.72880470875,336.31018799562503 C233.39295081875,336.321264105625 240.05704055875,336.321731445625 246.72119140875,336.315673825625 C253.57801592875,336.30963653562503 260.43463512875,336.321943075625 267.29142462875,336.343243895625 C273.19485552875,336.360903405625 279.09822131875,336.366854375625 285.00167762875003,336.363606155625 C288.52027800875,336.36179989562504 292.03873192875,336.364363235625 295.55730819875,336.378320695625 C299.48473811875,336.393318465625 303.41190986875,336.383890935625 307.33935546875,336.372314455625 C308.49289519875003,336.379958195625 309.64643493875,336.387601925625 310.83493041875,336.395477295625 C317.64991156875,336.351185765625 325.02940745875003,336.197598845625 330.58311271875,331.72508716562504 C336.88950306875,324.856685795625 336.29332368875,316.319704495625 336.27465819875,307.598144535625 C336.27976913875,306.36312194562504 336.28488006875,305.12809936562496 336.29014587874997,303.855651855625 C336.30163087874996,300.483587365625 336.30412077874996,297.111769405625 336.30158257874996,293.739702705625 C336.30050894875,290.916857825625 336.30540626875,288.094035345625 336.31018799875,285.27119529562503 C336.32126409875,278.607049185625 336.32173144875003,271.942959445625 336.31567382875,265.278808595625 C336.30963653875,258.421984065625 336.32194306875,251.565364875625 336.34324389874996,244.708575365625 C336.36090340875,238.805144475625 336.36685437874996,232.901778675625 336.36360615875003,226.998322365625 C336.36179988875,223.479721995625 336.36436322875,219.961268065625 336.37832069875003,216.442691805625 C336.39331846875,212.515261885625 336.38389093875,208.588090135625 336.37231444875,204.660644535625 C336.37995818875004,203.507104795625 336.38760192875,202.353565065625 336.39547729875,201.165069575625 C336.35118576875004,194.35008842562502 336.19759883874997,186.970592535625 331.72508716875,181.416887285625 C324.85668579875,175.110496925625 316.31970449875,175.706676315625 307.59814452875,175.725341795625 C306.36312194875,175.720230865625 305.12809936875,175.715119935625 303.85565185875,175.709854125625 C300.48358736875,175.698369125625 297.11176940875,175.69587921562498 293.73970269874997,175.698417425625 C290.91685782875,175.699491055625 288.09403534875,175.694593725625 285.27119528875,175.68981200562501 C278.60704917875,175.678735895625 271.94295944875,175.678268555625 265.27880859875,175.68432617562502 C258.42198406875,175.690363465625 251.56536486875,175.67805692562501 244.70857536875,175.656756105625 C238.80514447875,175.639096595625 232.90177867875,175.633145625625 226.99832236875,175.636393845625 C223.47972198875,175.638200105625 219.96126806875,175.635636765625 216.44269179875,175.621679305625 C212.51526187875,175.606681535625 208.58809013875,175.61610906562498 204.66064452875,175.627685545625 C203.50710479875,175.620041805625 202.35356505875,175.612398075625 201.16506957875,175.60452270562502 C193.65818506875,175.653311005625 185.47035033875,175.860214465625 180.06249999875,181.749999995625 z" fill="#ffffff" id="svg_2" class="" fill-opacity="1"/></g></svg>